<mxfile host="app.diagrams.net" modified="2023-04-14T06:52:07.090Z" agent="Mozilla/5.0 (Windows NT 10.0; Win64; x64) AppleWebKit/537.36 (KHTML, like Gecko) Chrome/111.0.0.0 Safari/537.36" etag="oJkhQ3kHEsRI57hwpjcf" version="21.1.7" type="github">
  <diagram name="第 1 页" id="_zLIyNRm_XeTgNFHIo9I">
    <mxGraphModel dx="2651" dy="943" grid="1" gridSize="10" guides="1" tooltips="1" connect="1" arrows="1" fold="1" page="1" pageScale="1" pageWidth="827" pageHeight="1169" math="0" shadow="0">
      <root>
        <mxCell id="0" />
        <mxCell id="1" parent="0" />
        <mxCell id="PIOaSycnFOyhoBspQ5AJ-113" value="" style="rounded=0;whiteSpace=wrap;html=1;fillColor=#e1d5e7;strokeColor=#9673a6;" parent="1" vertex="1">
          <mxGeometry x="-760" y="60" width="1563" height="630" as="geometry" />
        </mxCell>
        <mxCell id="PIOaSycnFOyhoBspQ5AJ-112" value="" style="rounded=0;whiteSpace=wrap;html=1;dashed=1;strokeColor=#666666;fillColor=#f5f5f5;fontColor=#333333;" parent="1" vertex="1">
          <mxGeometry x="225" y="90" width="152" height="100" as="geometry" />
        </mxCell>
        <mxCell id="PIOaSycnFOyhoBspQ5AJ-72" style="edgeStyle=orthogonalEdgeStyle;rounded=0;orthogonalLoop=1;jettySize=auto;html=1;entryX=0.5;entryY=0;entryDx=0;entryDy=0;" parent="1" source="PIOaSycnFOyhoBspQ5AJ-1" target="PIOaSycnFOyhoBspQ5AJ-14" edge="1">
          <mxGeometry relative="1" as="geometry" />
        </mxCell>
        <mxCell id="PIOaSycnFOyhoBspQ5AJ-90" style="edgeStyle=orthogonalEdgeStyle;rounded=0;orthogonalLoop=1;jettySize=auto;html=1;entryX=0.5;entryY=0;entryDx=0;entryDy=0;" parent="1" source="PIOaSycnFOyhoBspQ5AJ-1" target="PIOaSycnFOyhoBspQ5AJ-74" edge="1">
          <mxGeometry relative="1" as="geometry" />
        </mxCell>
        <mxCell id="PIOaSycnFOyhoBspQ5AJ-1" value="&lt;div style=&quot;color: rgb(0, 0, 0); background-color: rgb(255, 255, 255); font-family: Consolas, &amp;quot;Courier New&amp;quot;, monospace; font-weight: normal; font-size: 14px; line-height: 19px;&quot;&gt;&lt;div&gt;SambaTransfer&lt;/div&gt;&lt;/div&gt;" style="rounded=0;whiteSpace=wrap;html=1;fillColor=#ffe6cc;strokeColor=#d79b00;" parent="1" vertex="1">
          <mxGeometry x="37.5" y="212.5" width="120" height="60" as="geometry" />
        </mxCell>
        <mxCell id="PIOaSycnFOyhoBspQ5AJ-68" style="edgeStyle=orthogonalEdgeStyle;rounded=0;orthogonalLoop=1;jettySize=auto;html=1;exitX=0.5;exitY=1;exitDx=0;exitDy=0;" parent="1" source="PIOaSycnFOyhoBspQ5AJ-5" target="PIOaSycnFOyhoBspQ5AJ-1" edge="1">
          <mxGeometry relative="1" as="geometry" />
        </mxCell>
        <mxCell id="PIOaSycnFOyhoBspQ5AJ-69" value="construct" style="edgeLabel;html=1;align=center;verticalAlign=middle;resizable=0;points=[];" parent="PIOaSycnFOyhoBspQ5AJ-68" vertex="1" connectable="0">
          <mxGeometry x="-0.1091" y="-1" relative="1" as="geometry">
            <mxPoint as="offset" />
          </mxGeometry>
        </mxCell>
        <mxCell id="PIOaSycnFOyhoBspQ5AJ-5" value="&lt;div style=&quot;background-color: rgb(255, 255, 255); font-family: Consolas, &amp;quot;Courier New&amp;quot;, monospace; font-weight: normal; font-size: 14px; line-height: 19px;&quot;&gt;&lt;div style=&quot;background-color: rgb(255, 255, 255); font-family: Consolas, &amp;quot;Courier New&amp;quot;, monospace; font-weight: normal; font-size: 14px; line-height: 19px;&quot;&gt;&lt;div&gt;&lt;font color=&quot;#000000&quot;&gt;&amp;nbsp;workgroup;&amp;nbsp; username; &lt;br&gt;&lt;/font&gt;&lt;/div&gt;&lt;div&gt;&lt;font color=&quot;#000000&quot;&gt;password;&lt;/font&gt;&lt;/div&gt;&lt;/div&gt;&lt;/div&gt;" style="text;html=1;align=center;verticalAlign=middle;whiteSpace=wrap;rounded=0;fillColor=#d5e8d4;strokeColor=#82b366;" parent="1" vertex="1">
          <mxGeometry x="47.5" y="90" width="100" height="70" as="geometry" />
        </mxCell>
        <mxCell id="PIOaSycnFOyhoBspQ5AJ-18" style="edgeStyle=orthogonalEdgeStyle;rounded=0;orthogonalLoop=1;jettySize=auto;html=1;entryX=0.5;entryY=0;entryDx=0;entryDy=0;" parent="1" source="PIOaSycnFOyhoBspQ5AJ-14" target="PIOaSycnFOyhoBspQ5AJ-17" edge="1">
          <mxGeometry relative="1" as="geometry" />
        </mxCell>
        <mxCell id="PIOaSycnFOyhoBspQ5AJ-24" style="edgeStyle=orthogonalEdgeStyle;rounded=0;orthogonalLoop=1;jettySize=auto;html=1;entryX=0.5;entryY=0;entryDx=0;entryDy=0;" parent="1" source="PIOaSycnFOyhoBspQ5AJ-14" target="PIOaSycnFOyhoBspQ5AJ-23" edge="1">
          <mxGeometry relative="1" as="geometry" />
        </mxCell>
        <mxCell id="PIOaSycnFOyhoBspQ5AJ-14" value="下载文件" style="rounded=1;whiteSpace=wrap;html=1;" parent="1" vertex="1">
          <mxGeometry x="-242.5" y="375" width="100" height="40" as="geometry" />
        </mxCell>
        <mxCell id="PIOaSycnFOyhoBspQ5AJ-27" style="edgeStyle=orthogonalEdgeStyle;rounded=0;orthogonalLoop=1;jettySize=auto;html=1;entryX=0.511;entryY=-0.086;entryDx=0;entryDy=0;entryPerimeter=0;" parent="1" source="PIOaSycnFOyhoBspQ5AJ-17" target="PIOaSycnFOyhoBspQ5AJ-26" edge="1">
          <mxGeometry relative="1" as="geometry" />
        </mxCell>
        <mxCell id="PIOaSycnFOyhoBspQ5AJ-29" style="edgeStyle=orthogonalEdgeStyle;rounded=0;orthogonalLoop=1;jettySize=auto;html=1;entryX=0.5;entryY=0;entryDx=0;entryDy=0;" parent="1" source="PIOaSycnFOyhoBspQ5AJ-17" target="PIOaSycnFOyhoBspQ5AJ-28" edge="1">
          <mxGeometry relative="1" as="geometry" />
        </mxCell>
        <mxCell id="PIOaSycnFOyhoBspQ5AJ-17" value="下载多个文件" style="rounded=1;whiteSpace=wrap;html=1;" parent="1" vertex="1">
          <mxGeometry x="-342.5" y="475" width="110" height="30" as="geometry" />
        </mxCell>
        <mxCell id="PIOaSycnFOyhoBspQ5AJ-23" value="下载单个文件" style="rounded=1;whiteSpace=wrap;html=1;" parent="1" vertex="1">
          <mxGeometry x="-152.5" y="475" width="110" height="30" as="geometry" />
        </mxCell>
        <mxCell id="PIOaSycnFOyhoBspQ5AJ-26" value="下载url下所有文件" style="rounded=1;whiteSpace=wrap;html=1;" parent="1" vertex="1">
          <mxGeometry x="-412.5" y="545" width="100" height="40" as="geometry" />
        </mxCell>
        <mxCell id="PIOaSycnFOyhoBspQ5AJ-28" value="下载url下指定后缀的文件" style="rounded=1;whiteSpace=wrap;html=1;" parent="1" vertex="1">
          <mxGeometry x="-262.5" y="545" width="100" height="40" as="geometry" />
        </mxCell>
        <mxCell id="PIOaSycnFOyhoBspQ5AJ-33" style="edgeStyle=orthogonalEdgeStyle;rounded=0;orthogonalLoop=1;jettySize=auto;html=1;entryX=0;entryY=0.5;entryDx=0;entryDy=0;" parent="1" source="PIOaSycnFOyhoBspQ5AJ-30" target="PIOaSycnFOyhoBspQ5AJ-14" edge="1">
          <mxGeometry relative="1" as="geometry" />
        </mxCell>
        <mxCell id="PIOaSycnFOyhoBspQ5AJ-38" value="远程文件url" style="edgeLabel;html=1;align=center;verticalAlign=middle;resizable=0;points=[];" parent="PIOaSycnFOyhoBspQ5AJ-33" vertex="1" connectable="0">
          <mxGeometry x="0.0038" y="2" relative="1" as="geometry">
            <mxPoint x="-2" y="-17" as="offset" />
          </mxGeometry>
        </mxCell>
        <mxCell id="PIOaSycnFOyhoBspQ5AJ-30" value="&lt;div style=&quot;color: rgb(0, 0, 0); background-color: rgb(255, 255, 255); font-family: Consolas, &amp;quot;Courier New&amp;quot;, monospace; font-weight: normal; font-size: 14px; line-height: 19px;&quot;&gt;&lt;div&gt;SetUrl()&lt;/div&gt;&lt;/div&gt;" style="rounded=0;whiteSpace=wrap;html=1;fillColor=#dae8fc;strokeColor=#6c8ebf;" parent="1" vertex="1">
          <mxGeometry x="-322.5" y="315" width="90" height="30" as="geometry" />
        </mxCell>
        <mxCell id="PIOaSycnFOyhoBspQ5AJ-36" style="edgeStyle=orthogonalEdgeStyle;rounded=0;orthogonalLoop=1;jettySize=auto;html=1;entryX=1;entryY=0.5;entryDx=0;entryDy=0;" parent="1" source="PIOaSycnFOyhoBspQ5AJ-35" target="PIOaSycnFOyhoBspQ5AJ-14" edge="1">
          <mxGeometry relative="1" as="geometry" />
        </mxCell>
        <mxCell id="PIOaSycnFOyhoBspQ5AJ-37" value="本地下载位置" style="edgeLabel;html=1;align=center;verticalAlign=middle;resizable=0;points=[];" parent="PIOaSycnFOyhoBspQ5AJ-36" vertex="1" connectable="0">
          <mxGeometry x="0.1478" y="1" relative="1" as="geometry">
            <mxPoint x="10" y="-21" as="offset" />
          </mxGeometry>
        </mxCell>
        <mxCell id="PIOaSycnFOyhoBspQ5AJ-35" value="&lt;div style=&quot;color: rgb(0, 0, 0); background-color: rgb(255, 255, 255); font-family: Consolas, &amp;quot;Courier New&amp;quot;, monospace; font-weight: normal; font-size: 14px; line-height: 19px;&quot;&gt;&lt;div&gt;SetFileDownloadPath()&lt;/div&gt;&lt;/div&gt;" style="rounded=0;whiteSpace=wrap;html=1;fillColor=#dae8fc;strokeColor=#6c8ebf;" parent="1" vertex="1">
          <mxGeometry x="-162.5" y="315" width="190" height="30" as="geometry" />
        </mxCell>
        <mxCell id="PIOaSycnFOyhoBspQ5AJ-40" style="edgeStyle=orthogonalEdgeStyle;rounded=0;orthogonalLoop=1;jettySize=auto;html=1;entryX=0;entryY=0.5;entryDx=0;entryDy=0;" parent="1" source="PIOaSycnFOyhoBspQ5AJ-39" target="PIOaSycnFOyhoBspQ5AJ-17" edge="1">
          <mxGeometry relative="1" as="geometry" />
        </mxCell>
        <mxCell id="PIOaSycnFOyhoBspQ5AJ-64" style="edgeStyle=orthogonalEdgeStyle;rounded=0;orthogonalLoop=1;jettySize=auto;html=1;exitX=0.5;exitY=1;exitDx=0;exitDy=0;entryX=0.5;entryY=0;entryDx=0;entryDy=0;" parent="1" source="PIOaSycnFOyhoBspQ5AJ-39" target="PIOaSycnFOyhoBspQ5AJ-63" edge="1">
          <mxGeometry relative="1" as="geometry" />
        </mxCell>
        <mxCell id="PIOaSycnFOyhoBspQ5AJ-39" value="&lt;div style=&quot;color: rgb(0, 0, 0); background-color: rgb(255, 255, 255); font-family: Consolas, &amp;quot;Courier New&amp;quot;, monospace; font-weight: normal; font-size: 14px; line-height: 19px;&quot;&gt;&lt;div&gt;DownloadAll()&lt;/div&gt;&lt;/div&gt;" style="rounded=0;whiteSpace=wrap;html=1;fillColor=#dae8fc;strokeColor=#6c8ebf;" parent="1" vertex="1">
          <mxGeometry x="-682.5" y="475" width="110" height="30" as="geometry" />
        </mxCell>
        <mxCell id="PIOaSycnFOyhoBspQ5AJ-42" style="edgeStyle=orthogonalEdgeStyle;rounded=0;orthogonalLoop=1;jettySize=auto;html=1;exitX=1;exitY=0.5;exitDx=0;exitDy=0;entryX=0;entryY=0.5;entryDx=0;entryDy=0;" parent="1" source="PIOaSycnFOyhoBspQ5AJ-41" target="PIOaSycnFOyhoBspQ5AJ-17" edge="1">
          <mxGeometry relative="1" as="geometry" />
        </mxCell>
        <mxCell id="PIOaSycnFOyhoBspQ5AJ-43" value="后缀设置" style="edgeLabel;html=1;align=center;verticalAlign=middle;resizable=0;points=[];" parent="PIOaSycnFOyhoBspQ5AJ-42" vertex="1" connectable="0">
          <mxGeometry x="-0.5829" y="2" relative="1" as="geometry">
            <mxPoint x="9" y="17" as="offset" />
          </mxGeometry>
        </mxCell>
        <mxCell id="PIOaSycnFOyhoBspQ5AJ-41" value="&lt;div style=&quot;color: rgb(0, 0, 0); background-color: rgb(255, 255, 255); font-family: Consolas, &amp;quot;Courier New&amp;quot;, monospace; font-weight: normal; font-size: 14px; line-height: 19px;&quot;&gt;&lt;div&gt;&lt;div style=&quot;color: rgb(0, 0, 0); background-color: rgb(255, 255, 255); font-family: Consolas, &amp;quot;Courier New&amp;quot;, monospace; font-weight: normal; font-size: 14px; line-height: 19px;&quot;&gt;&lt;div&gt;SetFileSuffixes()&lt;/div&gt;&lt;/div&gt;&lt;/div&gt;&lt;/div&gt;" style="rounded=0;whiteSpace=wrap;html=1;fillColor=#dae8fc;strokeColor=#6c8ebf;" parent="1" vertex="1">
          <mxGeometry x="-552.5" y="435" width="150" height="30" as="geometry" />
        </mxCell>
        <mxCell id="PIOaSycnFOyhoBspQ5AJ-45" style="edgeStyle=orthogonalEdgeStyle;rounded=0;orthogonalLoop=1;jettySize=auto;html=1;" parent="1" source="PIOaSycnFOyhoBspQ5AJ-44" target="PIOaSycnFOyhoBspQ5AJ-23" edge="1">
          <mxGeometry relative="1" as="geometry" />
        </mxCell>
        <mxCell id="PIOaSycnFOyhoBspQ5AJ-44" value="&lt;div style=&quot;color: rgb(0, 0, 0); background-color: rgb(255, 255, 255); font-family: Consolas, &amp;quot;Courier New&amp;quot;, monospace; font-weight: normal; font-size: 14px; line-height: 19px;&quot;&gt;&lt;div&gt;DownloadOne()&lt;/div&gt;&lt;/div&gt;" style="rounded=0;whiteSpace=wrap;html=1;fillColor=#dae8fc;strokeColor=#6c8ebf;" parent="1" vertex="1">
          <mxGeometry x="-7.5" y="475" width="110" height="30" as="geometry" />
        </mxCell>
        <mxCell id="PIOaSycnFOyhoBspQ5AJ-48" style="edgeStyle=orthogonalEdgeStyle;rounded=0;orthogonalLoop=1;jettySize=auto;html=1;entryX=0;entryY=0.5;entryDx=0;entryDy=0;" parent="1" source="PIOaSycnFOyhoBspQ5AJ-47" target="PIOaSycnFOyhoBspQ5AJ-30" edge="1">
          <mxGeometry relative="1" as="geometry" />
        </mxCell>
        <mxCell id="PIOaSycnFOyhoBspQ5AJ-47" value="&lt;div style=&quot;color: rgb(0, 0, 0); background-color: rgb(255, 255, 255); font-family: Consolas, &amp;quot;Courier New&amp;quot;, monospace; font-weight: normal; font-size: 14px; line-height: 19px;&quot;&gt;&lt;div&gt;url&lt;/div&gt;&lt;/div&gt;" style="rounded=0;whiteSpace=wrap;html=1;fillColor=#d5e8d4;strokeColor=#82b366;" parent="1" vertex="1">
          <mxGeometry x="-382.5" y="317.5" width="40" height="25" as="geometry" />
        </mxCell>
        <mxCell id="PIOaSycnFOyhoBspQ5AJ-62" value="" style="edgeStyle=orthogonalEdgeStyle;rounded=0;orthogonalLoop=1;jettySize=auto;html=1;" parent="1" source="PIOaSycnFOyhoBspQ5AJ-50" target="PIOaSycnFOyhoBspQ5AJ-35" edge="1">
          <mxGeometry relative="1" as="geometry" />
        </mxCell>
        <mxCell id="PIOaSycnFOyhoBspQ5AJ-50" value="&lt;div style=&quot;color: rgb(0, 0, 0); background-color: rgb(255, 255, 255); font-family: Consolas, &amp;quot;Courier New&amp;quot;, monospace; font-weight: normal; font-size: 14px; line-height: 19px;&quot;&gt;&lt;div&gt;fileDownloadPath&lt;/div&gt;&lt;/div&gt;" style="rounded=0;whiteSpace=wrap;html=1;fillColor=#d5e8d4;strokeColor=#82b366;" parent="1" vertex="1">
          <mxGeometry x="57.5" y="312.5" width="140" height="35" as="geometry" />
        </mxCell>
        <mxCell id="PIOaSycnFOyhoBspQ5AJ-59" style="edgeStyle=orthogonalEdgeStyle;rounded=0;orthogonalLoop=1;jettySize=auto;html=1;" parent="1" source="PIOaSycnFOyhoBspQ5AJ-56" target="PIOaSycnFOyhoBspQ5AJ-41" edge="1">
          <mxGeometry relative="1" as="geometry" />
        </mxCell>
        <mxCell id="PIOaSycnFOyhoBspQ5AJ-56" value="&lt;div style=&quot;color: rgb(0, 0, 0); background-color: rgb(255, 255, 255); font-family: Consolas, &amp;quot;Courier New&amp;quot;, monospace; font-weight: normal; line-height: 19px; font-size: 14px;&quot;&gt;&lt;div&gt;&lt;font style=&quot;font-size: 14px;&quot;&gt;fileSuffixes&lt;/font&gt;&lt;/div&gt;&lt;/div&gt;" style="rounded=0;whiteSpace=wrap;html=1;fillColor=#d5e8d4;strokeColor=#82b366;" parent="1" vertex="1">
          <mxGeometry x="-536.25" y="390" width="117.5" height="25" as="geometry" />
        </mxCell>
        <mxCell id="PIOaSycnFOyhoBspQ5AJ-66" style="edgeStyle=orthogonalEdgeStyle;rounded=0;orthogonalLoop=1;jettySize=auto;html=1;exitX=0.5;exitY=1;exitDx=0;exitDy=0;entryX=0.5;entryY=0;entryDx=0;entryDy=0;" parent="1" source="PIOaSycnFOyhoBspQ5AJ-63" target="PIOaSycnFOyhoBspQ5AJ-65" edge="1">
          <mxGeometry relative="1" as="geometry" />
        </mxCell>
        <mxCell id="PIOaSycnFOyhoBspQ5AJ-63" value="&lt;div style=&quot;color: rgb(0, 0, 0); background-color: rgb(255, 255, 255); font-family: Consolas, &amp;quot;Courier New&amp;quot;, monospace; font-weight: normal; font-size: 14px; line-height: 19px;&quot;&gt;&lt;div&gt;SetFileUrls()&lt;/div&gt;&lt;/div&gt;" style="rounded=0;whiteSpace=wrap;html=1;fillColor=#dae8fc;strokeColor=#6c8ebf;" parent="1" vertex="1">
          <mxGeometry x="-702.5" y="530" width="150" height="25" as="geometry" />
        </mxCell>
        <mxCell id="PIOaSycnFOyhoBspQ5AJ-67" style="edgeStyle=orthogonalEdgeStyle;rounded=0;orthogonalLoop=1;jettySize=auto;html=1;endArrow=none;endFill=0;" parent="1" source="PIOaSycnFOyhoBspQ5AJ-65" edge="1">
          <mxGeometry relative="1" as="geometry">
            <mxPoint x="-482.5" y="490" as="targetPoint" />
          </mxGeometry>
        </mxCell>
        <mxCell id="PIOaSycnFOyhoBspQ5AJ-65" value="&lt;div style=&quot;color: rgb(0, 0, 0); background-color: rgb(255, 255, 255); font-family: Consolas, &amp;quot;Courier New&amp;quot;, monospace; font-weight: normal; font-size: 14px; line-height: 19px;&quot;&gt;&lt;div&gt;specificSuffixFileUrls&lt;div style=&quot;color: rgb(0, 0, 0); background-color: rgb(255, 255, 255); font-family: Consolas, &amp;quot;Courier New&amp;quot;, monospace; font-weight: normal; font-size: 14px; line-height: 19px;&quot;&gt;&lt;div&gt;allFileUrls&lt;/div&gt;&lt;/div&gt;&lt;/div&gt;&lt;/div&gt;" style="rounded=0;whiteSpace=wrap;html=1;fillColor=#d5e8d4;strokeColor=#82b366;" parent="1" vertex="1">
          <mxGeometry x="-730" y="585" width="205" height="49" as="geometry" />
        </mxCell>
        <mxCell id="PIOaSycnFOyhoBspQ5AJ-77" style="edgeStyle=orthogonalEdgeStyle;rounded=0;orthogonalLoop=1;jettySize=auto;html=1;" parent="1" source="PIOaSycnFOyhoBspQ5AJ-74" target="PIOaSycnFOyhoBspQ5AJ-76" edge="1">
          <mxGeometry relative="1" as="geometry" />
        </mxCell>
        <mxCell id="PIOaSycnFOyhoBspQ5AJ-79" style="edgeStyle=orthogonalEdgeStyle;rounded=0;orthogonalLoop=1;jettySize=auto;html=1;" parent="1" source="PIOaSycnFOyhoBspQ5AJ-74" target="PIOaSycnFOyhoBspQ5AJ-78" edge="1">
          <mxGeometry relative="1" as="geometry" />
        </mxCell>
        <mxCell id="PIOaSycnFOyhoBspQ5AJ-74" value="上传文件" style="rounded=1;whiteSpace=wrap;html=1;" parent="1" vertex="1">
          <mxGeometry x="330" y="355" width="120" height="50" as="geometry" />
        </mxCell>
        <mxCell id="PIOaSycnFOyhoBspQ5AJ-76" value="上传多个文件到url" style="rounded=1;whiteSpace=wrap;html=1;" parent="1" vertex="1">
          <mxGeometry x="214" y="457.5" width="120" height="60" as="geometry" />
        </mxCell>
        <mxCell id="PIOaSycnFOyhoBspQ5AJ-78" value="上传单个文件到url" style="rounded=1;whiteSpace=wrap;html=1;" parent="1" vertex="1">
          <mxGeometry x="430" y="457.5" width="120" height="60" as="geometry" />
        </mxCell>
        <mxCell id="PIOaSycnFOyhoBspQ5AJ-80" style="edgeStyle=orthogonalEdgeStyle;rounded=0;orthogonalLoop=1;jettySize=auto;html=1;entryX=0;entryY=0.5;entryDx=0;entryDy=0;" parent="1" source="PIOaSycnFOyhoBspQ5AJ-82" target="PIOaSycnFOyhoBspQ5AJ-74" edge="1">
          <mxGeometry relative="1" as="geometry">
            <mxPoint x="250.5" y="397.5" as="targetPoint" />
          </mxGeometry>
        </mxCell>
        <mxCell id="PIOaSycnFOyhoBspQ5AJ-81" value="远程文件url" style="edgeLabel;html=1;align=center;verticalAlign=middle;resizable=0;points=[];" parent="PIOaSycnFOyhoBspQ5AJ-80" vertex="1" connectable="0">
          <mxGeometry x="0.0038" y="2" relative="1" as="geometry">
            <mxPoint x="-5" y="2" as="offset" />
          </mxGeometry>
        </mxCell>
        <mxCell id="PIOaSycnFOyhoBspQ5AJ-82" value="&lt;div style=&quot;color: rgb(0, 0, 0); background-color: rgb(255, 255, 255); font-family: Consolas, &amp;quot;Courier New&amp;quot;, monospace; font-weight: normal; font-size: 14px; line-height: 19px;&quot;&gt;&lt;div&gt;SetUrl()&lt;/div&gt;&lt;/div&gt;" style="rounded=0;whiteSpace=wrap;html=1;fillColor=#dae8fc;strokeColor=#6c8ebf;" parent="1" vertex="1">
          <mxGeometry x="150" y="365" width="90" height="30" as="geometry" />
        </mxCell>
        <mxCell id="PIOaSycnFOyhoBspQ5AJ-83" style="edgeStyle=orthogonalEdgeStyle;rounded=0;orthogonalLoop=1;jettySize=auto;html=1;entryX=0;entryY=0.5;entryDx=0;entryDy=0;" parent="1" source="PIOaSycnFOyhoBspQ5AJ-84" target="PIOaSycnFOyhoBspQ5AJ-82" edge="1">
          <mxGeometry relative="1" as="geometry" />
        </mxCell>
        <mxCell id="PIOaSycnFOyhoBspQ5AJ-84" value="&lt;div style=&quot;color: rgb(0, 0, 0); background-color: rgb(255, 255, 255); font-family: Consolas, &amp;quot;Courier New&amp;quot;, monospace; font-weight: normal; font-size: 14px; line-height: 19px;&quot;&gt;&lt;div&gt;url&lt;/div&gt;&lt;/div&gt;" style="rounded=0;whiteSpace=wrap;html=1;fillColor=#d5e8d4;strokeColor=#82b366;" parent="1" vertex="1">
          <mxGeometry x="90" y="367.5" width="40" height="25" as="geometry" />
        </mxCell>
        <mxCell id="PIOaSycnFOyhoBspQ5AJ-89" style="edgeStyle=orthogonalEdgeStyle;rounded=0;orthogonalLoop=1;jettySize=auto;html=1;entryX=1;entryY=0.5;entryDx=0;entryDy=0;" parent="1" source="PIOaSycnFOyhoBspQ5AJ-85" target="PIOaSycnFOyhoBspQ5AJ-74" edge="1">
          <mxGeometry relative="1" as="geometry" />
        </mxCell>
        <mxCell id="PIOaSycnFOyhoBspQ5AJ-91" value="本地要上传的文件地址或文件夹地址" style="edgeLabel;html=1;align=center;verticalAlign=middle;resizable=0;points=[];" parent="PIOaSycnFOyhoBspQ5AJ-89" vertex="1" connectable="0">
          <mxGeometry x="0.0292" y="1" relative="1" as="geometry">
            <mxPoint x="76" y="-1" as="offset" />
          </mxGeometry>
        </mxCell>
        <mxCell id="PIOaSycnFOyhoBspQ5AJ-85" value="&lt;div style=&quot;color: rgb(0, 0, 0); background-color: rgb(255, 255, 255); font-family: Consolas, &amp;quot;Courier New&amp;quot;, monospace; font-weight: normal; font-size: 14px; line-height: 19px;&quot;&gt;&lt;div&gt;SetfileUploadPath()&lt;/div&gt;&lt;/div&gt;" style="rounded=0;whiteSpace=wrap;html=1;fillColor=#dae8fc;strokeColor=#6c8ebf;" parent="1" vertex="1">
          <mxGeometry x="440" y="317.5" width="180" height="30" as="geometry" />
        </mxCell>
        <mxCell id="PIOaSycnFOyhoBspQ5AJ-86" value="" style="edgeStyle=orthogonalEdgeStyle;rounded=0;orthogonalLoop=1;jettySize=auto;html=1;" parent="1" source="PIOaSycnFOyhoBspQ5AJ-87" target="PIOaSycnFOyhoBspQ5AJ-85" edge="1">
          <mxGeometry relative="1" as="geometry" />
        </mxCell>
        <mxCell id="PIOaSycnFOyhoBspQ5AJ-87" value="&lt;div style=&quot;color: rgb(0, 0, 0); background-color: rgb(255, 255, 255); font-family: Consolas, &amp;quot;Courier New&amp;quot;, monospace; font-weight: normal; font-size: 14px; line-height: 19px;&quot;&gt;&lt;div&gt;fileUploadPath&lt;/div&gt;&lt;/div&gt;" style="rounded=0;whiteSpace=wrap;html=1;fillColor=#d5e8d4;strokeColor=#82b366;" parent="1" vertex="1">
          <mxGeometry x="650" y="315" width="140" height="35" as="geometry" />
        </mxCell>
        <mxCell id="PIOaSycnFOyhoBspQ5AJ-93" style="edgeStyle=orthogonalEdgeStyle;rounded=0;orthogonalLoop=1;jettySize=auto;html=1;" parent="1" source="PIOaSycnFOyhoBspQ5AJ-92" target="PIOaSycnFOyhoBspQ5AJ-78" edge="1">
          <mxGeometry relative="1" as="geometry" />
        </mxCell>
        <mxCell id="PIOaSycnFOyhoBspQ5AJ-92" value="&lt;div style=&quot;color: rgb(0, 0, 0); background-color: rgb(255, 255, 255); font-family: Consolas, &amp;quot;Courier New&amp;quot;, monospace; font-weight: normal; font-size: 14px; line-height: 19px;&quot;&gt;&lt;div&gt;UploadOne()&lt;/div&gt;&lt;/div&gt;" style="rounded=0;whiteSpace=wrap;html=1;fillColor=#dae8fc;strokeColor=#6c8ebf;" parent="1" vertex="1">
          <mxGeometry x="600" y="472.5" width="110" height="30" as="geometry" />
        </mxCell>
        <mxCell id="PIOaSycnFOyhoBspQ5AJ-94" style="edgeStyle=orthogonalEdgeStyle;rounded=0;orthogonalLoop=1;jettySize=auto;html=1;exitX=0.5;exitY=1;exitDx=0;exitDy=0;entryX=0.5;entryY=0;entryDx=0;entryDy=0;" parent="1" source="PIOaSycnFOyhoBspQ5AJ-95" target="PIOaSycnFOyhoBspQ5AJ-97" edge="1">
          <mxGeometry relative="1" as="geometry" />
        </mxCell>
        <mxCell id="PIOaSycnFOyhoBspQ5AJ-103" style="edgeStyle=orthogonalEdgeStyle;rounded=0;orthogonalLoop=1;jettySize=auto;html=1;exitX=1;exitY=0.5;exitDx=0;exitDy=0;" parent="1" source="PIOaSycnFOyhoBspQ5AJ-95" edge="1">
          <mxGeometry relative="1" as="geometry">
            <mxPoint x="270" y="520" as="targetPoint" />
          </mxGeometry>
        </mxCell>
        <mxCell id="PIOaSycnFOyhoBspQ5AJ-95" value="&lt;div style=&quot;color: rgb(0, 0, 0); background-color: rgb(255, 255, 255); font-family: Consolas, &amp;quot;Courier New&amp;quot;, monospace; font-weight: normal; font-size: 14px; line-height: 19px;&quot;&gt;&lt;div&gt;UploadAll()&lt;/div&gt;&lt;/div&gt;" style="rounded=0;whiteSpace=wrap;html=1;fillColor=#dae8fc;strokeColor=#6c8ebf;" parent="1" vertex="1">
          <mxGeometry x="95" y="540" width="110" height="30" as="geometry" />
        </mxCell>
        <mxCell id="PIOaSycnFOyhoBspQ5AJ-96" style="edgeStyle=orthogonalEdgeStyle;rounded=0;orthogonalLoop=1;jettySize=auto;html=1;exitX=0.5;exitY=1;exitDx=0;exitDy=0;entryX=0.5;entryY=0;entryDx=0;entryDy=0;" parent="1" source="PIOaSycnFOyhoBspQ5AJ-97" target="PIOaSycnFOyhoBspQ5AJ-99" edge="1">
          <mxGeometry relative="1" as="geometry" />
        </mxCell>
        <mxCell id="PIOaSycnFOyhoBspQ5AJ-97" value="&lt;div style=&quot;color: rgb(0, 0, 0); background-color: rgb(255, 255, 255); font-family: Consolas, &amp;quot;Courier New&amp;quot;, monospace; font-weight: normal; font-size: 14px; line-height: 19px;&quot;&gt;&lt;div&gt;SetFilePaths()&lt;/div&gt;&lt;/div&gt;" style="rounded=0;whiteSpace=wrap;html=1;fillColor=#dae8fc;strokeColor=#6c8ebf;" parent="1" vertex="1">
          <mxGeometry x="75" y="595" width="150" height="25" as="geometry" />
        </mxCell>
        <mxCell id="PIOaSycnFOyhoBspQ5AJ-104" style="edgeStyle=orthogonalEdgeStyle;rounded=0;orthogonalLoop=1;jettySize=auto;html=1;endArrow=none;endFill=0;" parent="1" source="PIOaSycnFOyhoBspQ5AJ-99" edge="1">
          <mxGeometry relative="1" as="geometry">
            <mxPoint x="270" y="550" as="targetPoint" />
          </mxGeometry>
        </mxCell>
        <mxCell id="PIOaSycnFOyhoBspQ5AJ-99" value="&lt;div style=&quot;color: rgb(0, 0, 0); background-color: rgb(255, 255, 255); font-family: Consolas, &amp;quot;Courier New&amp;quot;, monospace; font-weight: normal; font-size: 14px; line-height: 19px;&quot;&gt;&lt;div&gt;allFilePaths&lt;/div&gt;&lt;/div&gt;" style="rounded=0;whiteSpace=wrap;html=1;fillColor=#d5e8d4;strokeColor=#82b366;" parent="1" vertex="1">
          <mxGeometry x="70" y="644" width="160" height="30" as="geometry" />
        </mxCell>
        <mxCell id="PIOaSycnFOyhoBspQ5AJ-105" value="" style="ellipse;whiteSpace=wrap;html=1;aspect=fixed;fillColor=#fff2cc;strokeColor=#d6b656;" parent="1" vertex="1">
          <mxGeometry x="237" y="100" width="20" height="20" as="geometry" />
        </mxCell>
        <mxCell id="PIOaSycnFOyhoBspQ5AJ-106" value="" style="ellipse;whiteSpace=wrap;html=1;aspect=fixed;fillColor=#dae8fc;strokeColor=#6c8ebf;" parent="1" vertex="1">
          <mxGeometry x="237" y="130" width="20" height="20" as="geometry" />
        </mxCell>
        <mxCell id="PIOaSycnFOyhoBspQ5AJ-107" value="" style="ellipse;whiteSpace=wrap;html=1;aspect=fixed;fillColor=#d5e8d4;strokeColor=#82b366;" parent="1" vertex="1">
          <mxGeometry x="237" y="160" width="20" height="20" as="geometry" />
        </mxCell>
        <mxCell id="PIOaSycnFOyhoBspQ5AJ-108" value="Class" style="text;html=1;strokeColor=none;fillColor=none;align=center;verticalAlign=middle;whiteSpace=wrap;rounded=0;" parent="1" vertex="1">
          <mxGeometry x="257" y="95" width="60" height="30" as="geometry" />
        </mxCell>
        <mxCell id="PIOaSycnFOyhoBspQ5AJ-109" value="Class Method" style="text;html=1;strokeColor=none;fillColor=none;align=center;verticalAlign=middle;whiteSpace=wrap;rounded=0;" parent="1" vertex="1">
          <mxGeometry x="257" y="125" width="102.5" height="30" as="geometry" />
        </mxCell>
        <mxCell id="PIOaSycnFOyhoBspQ5AJ-110" value="Class Members" style="text;html=1;strokeColor=none;fillColor=none;align=center;verticalAlign=middle;whiteSpace=wrap;rounded=0;" parent="1" vertex="1">
          <mxGeometry x="258.25" y="155" width="112.5" height="30" as="geometry" />
        </mxCell>
      </root>
    </mxGraphModel>
  </diagram>
</mxfile>
